<svg xmlns="http://www.w3.org/2000/svg" viewBox="0 0 200 175"><path d="M27 99c0-48 33-83 81-83 45 0 76 30 82 70 4 26-3 52-19 71H86c-39 0-59-22-59-58z" fill="#747b7f" stroke="#454b4e" stroke-width="5"/><path d="M48 58c29-27 87-29 119 1-9 31-31 48-69 50-30 2-48-12-50-51z" fill="#263139" stroke="#171e22" stroke-width="4"/><path d="M57 62c27-15 70-17 95-2-12 10-27 17-46 20-21 3-37-1-49-18z" fill="#99a8ae" opacity=".35"/><path d="M84 111h79c-2 18-9 33-23 44H91c-10-11-13-25-7-44z" fill="#565d61" stroke="#41474a" stroke-width="4"/></svg>
